<?xml version="1.0" encoding="UTF-8" standalone="no" ?>
<!DOCTYPE svg PUBLIC "-//W3C//DTD SVG 1.1//EN" "http://www.w3.org/Graphics/SVG/1.1/DTD/svg11.dtd">
<svg xmlns="http://www.w3.org/2000/svg" xmlns:xlink="http://www.w3.org/1999/xlink" version="1.1" width="1080" height="1080" viewBox="0 0 1080 1080" xml:space="preserve">
<desc>Created with Fabric.js 5.2.4</desc>
<defs>
</defs>
<rect x="0" y="0" width="100%" height="100%" fill="transparent"></rect>
<g transform="matrix(1 0 0 1 540 540)" id="c8916787-ee32-4ba5-9e96-fcddaa6be090"  >
<rect style="stroke: none; stroke-width: 1; stroke-dasharray: none; stroke-linecap: butt; stroke-dashoffset: 0; stroke-linejoin: miter; stroke-miterlimit: 4; fill: rgb(255,255,255); fill-rule: nonzero; opacity: 1; visibility: hidden;" vector-effect="non-scaling-stroke"  x="-540" y="-540" rx="0" ry="0" width="1080" height="1080" />
</g>
<g transform="matrix(1 0 0 1 540 540)" id="8e58ba0f-d340-408d-9364-42bfb2375cc2"  >
</g>
<g transform="matrix(8.67 0 0 8.67 481.47 404.98)" id="2c84a589-efc7-41d8-a2b4-c6a7d905c519"  >
<circle style="stroke: rgb(0,0,0); stroke-width: 0; stroke-dasharray: none; stroke-linecap: butt; stroke-dashoffset: 0; stroke-linejoin: miter; stroke-miterlimit: 4; fill: rgb(255,255,255); fill-rule: nonzero; opacity: 1;" vector-effect="non-scaling-stroke"  cx="0" cy="0" r="35" />
</g>
<g transform="matrix(-7.3 0 0 -6.68 481.78 753.93)" id="f80f1121-0cc9-480d-a268-bddbd4d1587c"  >
<polygon style="stroke: rgb(0,0,0); stroke-width: 0; stroke-dasharray: none; stroke-linecap: butt; stroke-dashoffset: 0; stroke-linejoin: miter; stroke-miterlimit: 4; fill: rgb(255,255,255); fill-rule: nonzero; opacity: 1;" vector-effect="non-scaling-stroke"  points="-37.43,32.41 0,-32.41 37.43,32.41 " />
</g>
<g transform="matrix(0.64 0 0 0.64 482.61 398.03)" id="41858dff-ce6e-4dfd-abcb-faffaf7e7697"  >
<path style="stroke: rgb(0,0,0); stroke-width: 0; stroke-dasharray: none; stroke-linecap: butt; stroke-dashoffset: 0; stroke-linejoin: miter; stroke-miterlimit: 4; fill: rgb(0,0,0); fill-rule: nonzero; opacity: 1;" vector-effect="non-scaling-stroke"  transform=" translate(-320, -256)" d="M 0.3 166.9 L 0 68 C 0 57.7 9.5 50.1 19.5 52.3 L 55.1 60.199999999999996 C 65.7 62.49999999999999 74.3 70.1 78.1 80.19999999999999 L 96 128 L 223.3 165.6 L 181.8 20.4 C 178.9 10.2 186.6 0 197.2 0 L 237.29999999999998 0 C 248.89999999999998 0 259.5 6.2 265.2 16.3 L 374.2 210.10000000000002 L 481.4 241.8 C 497.29999999999995 246.5 512.1999999999999 254.3 525.1 264.6 L 559.5 292.20000000000005 C 583.5 311.40000000000003 577.6 349.50000000000006 548.8 360.40000000000003 C 507.59999999999997 376.00000000000006 462.59999999999997 378.50000000000006 419.99999999999994 367.40000000000003 L 121.7 289.8 C 110.60000000000001 286.90000000000003 100.5 281.1 92.4 272.90000000000003 L 9.5 189.4 C 3.5999999999999996 183.4 0.1999999999999993 175.3 0.1999999999999993 166.9 z M 32 448 L 608 448 C 625.7 448 640 462.3 640 480 C 640 497.7 625.7 512 608 512 L 32 512 C 14.3 512 0 497.7 0 480 C 0 462.3 14.3 448 32 448 z M 128 368 C 128 350.3268880054146 142.32688800541462 336 160 336 C 177.67311199458538 336 192 350.3268880054146 192 368 C 192 385.6731119945854 177.67311199458538 400 160 400 C 142.32688800541462 400 128 385.6731119945854 128 368 z M 256 352 C 273.6731119945854 352 288 366.3268880054146 288 384 C 288 401.6731119945854 273.6731119945854 416 256 416 C 238.32688800541462 416 224 401.6731119945854 224 384 C 224 366.3268880054146 238.32688800541462 352 256 352 z" stroke-linecap="round" />
</g>
</svg>