<?xml version="1.0" encoding="UTF-8" standalone="no" ?>
<!DOCTYPE svg PUBLIC "-//W3C//DTD SVG 1.1//EN" "http://www.w3.org/Graphics/SVG/1.1/DTD/svg11.dtd">
<svg xmlns="http://www.w3.org/2000/svg" xmlns:xlink="http://www.w3.org/1999/xlink" version="1.1" width="1080" height="1080" viewBox="0 0 1080 1080" xml:space="preserve">
<desc>Created with Fabric.js 5.2.4</desc>
<defs>
</defs>
<rect x="0" y="0" width="100%" height="100%" fill="transparent"></rect>
<g transform="matrix(1 0 0 1 540 540)" id="c8916787-ee32-4ba5-9e96-fcddaa6be090"  >
<rect style="stroke: none; stroke-width: 1; stroke-dasharray: none; stroke-linecap: butt; stroke-dashoffset: 0; stroke-linejoin: miter; stroke-miterlimit: 4; fill: rgb(255,255,255); fill-rule: nonzero; opacity: 1; visibility: hidden;" vector-effect="non-scaling-stroke"  x="-540" y="-540" rx="0" ry="0" width="1080" height="1080" />
</g>
<g transform="matrix(1 0 0 1 540 540)" id="8e58ba0f-d340-408d-9364-42bfb2375cc2"  >
</g>
<g transform="matrix(1 0 0 1 540 540)"  >
<rect style="stroke: none; stroke-width: 1; stroke-dasharray: none; stroke-linecap: butt; stroke-dashoffset: 0; stroke-linejoin: miter; stroke-miterlimit: 4; fill: rgb(255,255,255); fill-rule: nonzero; opacity: 1; visibility: hidden;" vector-effect="non-scaling-stroke"  x="-540" y="-540" rx="0" ry="0" width="1080" height="1080" />
</g>
<g transform="matrix(1 0 0 1 424.28 522.01)"  >
<path style="stroke: rgb(0,0,0); stroke-width: 1; stroke-dasharray: none; stroke-linecap: square; stroke-dashoffset: 0; stroke-linejoin: miter; stroke-miterlimit: 4; fill: rgb(255,255,255); fill-rule: evenodd; opacity: 1;" vector-effect="non-scaling-stroke"  transform=" translate(-242.14, -321.08)" d="M 330.74501 304.6637 L 363.57811 337.4968 L 363.56214 337.4968 L 120.71013 337.4968 L 330.74501 304.6637" stroke-linecap="round" />
</g>
<g transform="matrix(1 0 0 1 424.28 555.84)"  >
<path style="stroke: rgb(0,0,0); stroke-width: 1; stroke-dasharray: none; stroke-linecap: square; stroke-dashoffset: 0; stroke-linejoin: miter; stroke-miterlimit: 4; fill: rgb(106,198,212); fill-rule: evenodd; opacity: 1;" vector-effect="non-scaling-stroke"  transform=" translate(-242.14, -354.91)" d="M 330.74501 371.3299 L 363.57811 338.4968 L 363.56214 338.4968 L 120.71013 338.4968 L 330.74501 371.3299" stroke-linecap="round" />
</g>
<g transform="matrix(1 0 0 1 668.14 555.84)"  >
<path style="stroke: rgb(0,0,0); stroke-width: 1; stroke-dasharray: none; stroke-linecap: square; stroke-dashoffset: 0; stroke-linejoin: miter; stroke-miterlimit: 4; fill: rgb(255,255,255); fill-rule: evenodd; opacity: 1;" vector-effect="non-scaling-stroke"  transform=" translate(-486.01, -354.91)" d="M 397.41118 371.32995 L 364.57808 338.49685 L 364.59405 338.49685 L 607.44606 338.49685 L 397.41118 371.32995" stroke-linecap="round" />
</g>
<g transform="matrix(1 0 0 1 668.14 522.01)"  >
<path style="stroke: rgb(0,0,0); stroke-width: 1; stroke-dasharray: none; stroke-linecap: square; stroke-dashoffset: 0; stroke-linejoin: miter; stroke-miterlimit: 4; fill: rgb(106,198,212); fill-rule: evenodd; opacity: 1;" vector-effect="non-scaling-stroke"  transform=" translate(-486.01, -321.08)" d="M 397.41118 304.66375 L 364.57808 337.49685 L 364.59405 337.49685 L 607.44606 337.49685 L 397.41118 304.66375" stroke-linecap="round" />
</g>
<g transform="matrix(1 0 0 1 529.3 660.85)"  >
<path style="stroke: rgb(0,0,0); stroke-width: 1; stroke-dasharray: none; stroke-linecap: square; stroke-dashoffset: 0; stroke-linejoin: miter; stroke-miterlimit: 4; fill: rgb(255,255,255); fill-rule: evenodd; opacity: 1;" vector-effect="non-scaling-stroke"  transform=" translate(-347.16, -459.93)" d="M 330.74499 371.32988 L 363.57809 338.49678 L 363.57809 338.51275 L 363.57809 581.36476 L 330.74499 371.32988" stroke-linecap="round" />
</g>
<g transform="matrix(1 0 0 1 563.13 660.85)"  >
<path style="stroke: rgb(0,0,0); stroke-width: 1; stroke-dasharray: none; stroke-linecap: square; stroke-dashoffset: 0; stroke-linejoin: miter; stroke-miterlimit: 4; fill: rgb(106,198,212); fill-rule: evenodd; opacity: 1;" vector-effect="non-scaling-stroke"  transform=" translate(-380.99, -459.93)" d="M 397.41119 371.32988 L 364.57809 338.49678 L 364.57809 338.51275 L 364.57809 581.36476 L 397.41119 371.32988" stroke-linecap="round" />
</g>
<g transform="matrix(1 0 0 1 563.13 416.98)"  >
<path style="stroke: rgb(0,0,0); stroke-width: 1; stroke-dasharray: none; stroke-linecap: square; stroke-dashoffset: 0; stroke-linejoin: miter; stroke-miterlimit: 4; fill: rgb(255,255,255); fill-rule: evenodd; opacity: 1;" vector-effect="non-scaling-stroke"  transform=" translate(-380.99, -216.06)" d="M 397.41115 304.66372 L 364.57805 337.49682 L 364.57805 337.48085 L 364.57805 94.62884 L 397.41115 304.66372" stroke-linecap="round" />
</g>
<g transform="matrix(1 0 0 1 529.3 416.98)"  >
<path style="stroke: rgb(0,0,0); stroke-width: 1; stroke-dasharray: none; stroke-linecap: square; stroke-dashoffset: 0; stroke-linejoin: miter; stroke-miterlimit: 4; fill: rgb(106,198,212); fill-rule: evenodd; opacity: 1;" vector-effect="non-scaling-stroke"  transform=" translate(-347.16, -216.06)" d="M 330.74495 304.66372 L 363.57805 337.49682 L 363.57805 337.48085 L 363.57805 94.62884 L 330.74495 304.66372" stroke-linecap="round" />
</g>
<g transform="matrix(1 0 0 1 546.22 266.27)"  >
<path style="stroke: none; stroke-width: 1; stroke-dasharray: none; stroke-linecap: butt; stroke-dashoffset: 0; stroke-linejoin: miter; stroke-miterlimit: 4; fill: rgb(106,198,212); fill-rule: nonzero; opacity: 1;" vector-effect="non-scaling-stroke"  transform=" translate(-307.19, -26.97)" d="M 294.12404 12.387486 L 302.52247 12.387486 L 313.12794 32.387486 L 313.12794 12.387486 L 320.25685 12.387486 L 320.25685 41.547642 L 311.85841 41.547642 L 301.25294 21.547642 L 301.25294 41.547642 L 294.12404 41.547642 L 294.12404 12.387486" stroke-linecap="round" />
</g>
<g transform="matrix(0 1 -1 0 821.61 540)"  >
<path style="stroke: none; stroke-width: 1; stroke-dasharray: none; stroke-linecap: butt; stroke-dashoffset: 0; stroke-linejoin: miter; stroke-miterlimit: 4; fill: rgb(106,198,212); fill-rule: nonzero; opacity: 1;" vector-effect="non-scaling-stroke"  transform=" translate(-582.59, -299.62)" d="M 572.23012 285.03658 L 592.52309 285.03658 L 592.52309 290.72017 L 579.74965 290.72017 L 579.74965 296.14985 L 591.76137 296.14985 L 591.76137 301.83345 L 579.74965 301.83345 L 579.74965 308.51314 L 592.95277 308.51314 L 592.95277 314.19673 L 572.23012 314.19673 L 572.23012 285.03658" stroke-linecap="round" />
</g>
<g transform="matrix(0 -1 1 0 268.86 538.92)"  >
<path style="stroke: none; stroke-width: 1; stroke-dasharray: none; stroke-linecap: butt; stroke-dashoffset: 0; stroke-linejoin: miter; stroke-miterlimit: 4; fill: rgb(106,198,212); fill-rule: nonzero; opacity: 1;" vector-effect="non-scaling-stroke"  transform=" translate(-29.84, -299.62)" d="M 9 285.03658 L 16.207031 285.03658 L 21.246094 306.22798 L 26.246094 285.03658 L 33.492187 285.03658 L 38.492187 306.22798 L 43.531253 285.03658 L 50.679687 285.03658 L 43.804683 314.19673 L 35.132812 314.19673 L 29.839844 292.02875 L 24.605469 314.19673 L 15.933594 314.19673 L 9 285.03658" stroke-linecap="round" />
</g>
<g transform="matrix(-1 0 0 -1 546.21 813.18)"  >
<path style="stroke: none; stroke-width: 1; stroke-dasharray: none; stroke-linecap: butt; stroke-dashoffset: 0; stroke-linejoin: miter; stroke-miterlimit: 4; fill: rgb(106,198,212); fill-rule: nonzero; opacity: 1;" vector-effect="non-scaling-stroke"  transform=" translate(-307.19, -573.87)" d="M 316.7803 560.1914 L 316.7803 566.36328 C 315.1787 565.64716 313.6162 565.10679 312.09279 564.74218 C 310.56933 564.37763 309.13053 564.19533 307.77639 564.19531 C 305.97949 564.19533 304.65137 564.44273 303.79201 564.9375 C 302.93263 565.43231 302.50293 566.20054 302.50295 567.24218 C 302.50293 568.02346 302.78941 568.63543 303.36231 569.07812 C 303.94824 569.50783 305.00293 569.87892 306.52639 570.1914 L 309.7295 570.83593 C 312.97168 571.48699 315.27637 572.47658 316.64357 573.80468 C 318.01074 575.13282 318.69433 577.02084 318.69435 579.46875 C 318.69433 582.6849 317.73731 585.08073 315.82325 586.65625 C 313.9222 588.21875 311.01205 589 307.09279 589 C 305.24381 589 303.38835 588.82422 301.52639 588.47265 C 299.6644 588.12109 297.80242 587.60026 295.94045 586.91015 L 295.94045 580.5625 C 297.80242 581.55209 299.59929 582.30078 301.33107 582.80859 C 303.07586 583.30339 304.75554 583.55078 306.37013 583.55078 C 308.01075 583.55078 309.26725 583.27735 310.13966 582.73047 C 311.01205 582.1836 311.44823 581.40235 311.44825 580.38672 C 311.44823 579.47527 311.14876 578.77214 310.54981 578.27734 C 309.96387 577.78256 308.7855 577.33985 307.01466 576.94922 L 304.1045 576.30468 C 301.18784 575.6797 299.05241 574.6836 297.69825 573.3164 C 296.35711 571.94923 295.68653 570.10679 295.68653 567.78906 C 295.68653 564.88544 296.62403 562.65237 298.49904 561.08984 C 300.37404 559.52737 303.06933 558.74612 306.58497 558.74609 C 308.18652 558.74612 309.83365 558.86982 311.52639 559.11718 C 313.21907 559.35159 314.97039 559.70966 316.7803 560.1914" stroke-linecap="round" />
</g>
</svg>